<svg xmlns="http://www.w3.org/2000/svg" xmlns:xlink="http://www.w3.org/1999/xlink" width="500" zoomAndPan="magnify" viewBox="0 0 375 374.999991" height="500" preserveAspectRatio="xMidYMid meet" version="1.0"><defs><g><g id="id1"/><g id="id2"/></g><clipPath id="id3"><path d="M 147.660156 117 L 228.484375 117 L 228.484375 189.367188 L 147.660156 189.367188 Z M 147.660156 117 " clip-rule="nonzero"/></clipPath></defs><rect x="-37.5" width="450" fill="rgb(100%, 100%, 100%)" y="-37.499999" height="449.999989" fill-opacity="1"/><rect x="-37.5" width="450" fill="rgb(100%, 100%, 100%)" y="-37.499999" height="449.999989" fill-opacity="1"/><rect x="-37.5" width="450" fill="rgb(100%, 100%, 100%)" y="-37.499999" height="449.999989" fill-opacity="1"/><path fill="rgb(100%, 100%, 100%)" d="M 156.660156 155.890625 C 156.660156 139.605469 169.78125 126.398438 185.964844 126.398438 C 189.882812 126.398438 193.621094 127.175781 197.035156 128.578125 C 193.015625 126.324219 188.382812 125.039062 183.453125 125.039062 C 168.015625 125.039062 155.5 137.632812 155.5 153.171875 C 155.5 157.394531 156.429688 161.398438 158.085938 164.992188 C 157.160156 162.125 156.660156 159.070312 156.660156 155.890625 " fill-opacity="1" fill-rule="nonzero"/><path fill="rgb(8.239746%, 39.608765%, 69.018555%)" d="M 178.210938 160.230469 C 178.757812 160.289062 206.140625 168.578125 225.773438 153.070312 L 223.765625 148.445312 C 223.765625 148.445312 210.382812 163.878906 178.210938 160.230469 " fill-opacity="1" fill-rule="nonzero"/><g clip-path="url(#id3)"><path fill="rgb(7.839966%, 41.569519%, 86.669922%)" d="M 228.472656 159.28125 L 225.773438 153.070312 C 206.140625 168.578125 178.757812 160.289062 178.210938 160.230469 C 178.210938 160.230469 193.992188 166.386719 209.257812 165.757812 C 208.160156 168.019531 206.773438 170.117188 205.148438 172 C 199.863281 171.472656 189.242188 169.730469 178.210938 163.992188 C 178.210938 163.992188 186.503906 174.042969 199.699219 176.890625 C 195.117188 180.050781 189.570312 181.898438 183.59375 181.898438 C 167.828125 181.898438 155.046875 169.035156 155.046875 153.171875 C 155.046875 137.304688 167.828125 124.441406 183.59375 124.441406 C 193.332031 124.441406 201.929688 129.351562 207.082031 136.839844 L 215.675781 136.839844 C 209.746094 125.066406 197.605469 117 183.59375 117 C 163.742188 117 147.652344 133.191406 147.652344 153.171875 C 147.652344 173.148438 163.742188 189.34375 183.59375 189.34375 C 199.476562 189.34375 212.949219 178.976562 217.703125 164.597656 C 221.671875 163.605469 225.371094 161.921875 228.472656 159.28125 " fill-opacity="1" fill-rule="nonzero"/></g><g fill="rgb(0.779724%, 8.628845%, 13.328552%)" fill-opacity="1"><g transform="translate(142.261182, 222.116396)"><g><path d="M 12.140625 -13.484375 L 21.671875 -13.484375 L 21.671875 -1.03125 C 20.128906 -0.53125 18.675781 -0.179688 17.3125 0.015625 C 15.945312 0.222656 14.550781 0.328125 13.125 0.328125 C 9.5 0.328125 6.726562 -0.734375 4.8125 -2.859375 C 2.90625 -4.992188 1.953125 -8.054688 1.953125 -12.046875 C 1.953125 -15.921875 3.0625 -18.941406 5.28125 -21.109375 C 7.5 -23.285156 10.578125 -24.375 14.515625 -24.375 C 16.972656 -24.375 19.347656 -23.878906 21.640625 -22.890625 L 19.953125 -18.8125 C 18.203125 -19.6875 16.378906 -20.125 14.484375 -20.125 C 12.273438 -20.125 10.507812 -19.382812 9.1875 -17.90625 C 7.863281 -16.425781 7.203125 -14.441406 7.203125 -11.953125 C 7.203125 -9.335938 7.734375 -7.34375 8.796875 -5.96875 C 9.867188 -4.59375 11.421875 -3.90625 13.453125 -3.90625 C 14.515625 -3.90625 15.597656 -4.015625 16.703125 -4.234375 L 16.703125 -9.25 L 12.140625 -9.25 Z M 12.140625 -13.484375 "/></g></g></g><g fill="rgb(0.779724%, 8.628845%, 13.328552%)" fill-opacity="1"><g transform="translate(170.767525, 222.116396)"><g><path d="M 22.578125 -24.03125 L 22.578125 -8.484375 C 22.578125 -6.703125 22.179688 -5.144531 21.390625 -3.8125 C 20.597656 -2.476562 19.445312 -1.453125 17.9375 -0.734375 C 16.4375 -0.0234375 14.664062 0.328125 12.625 0.328125 C 9.53125 0.328125 7.128906 -0.460938 5.421875 -2.046875 C 3.710938 -3.628906 2.859375 -5.796875 2.859375 -8.546875 L 2.859375 -24.03125 L 7.9375 -24.03125 L 7.9375 -9.3125 C 7.9375 -7.46875 8.304688 -6.109375 9.046875 -5.234375 C 9.796875 -4.367188 11.03125 -3.9375 12.75 -3.9375 C 14.414062 -3.9375 15.625 -4.375 16.375 -5.25 C 17.125 -6.125 17.5 -7.488281 17.5 -9.34375 L 17.5 -24.03125 Z M 22.578125 -24.03125 "/></g></g></g><g fill="rgb(0.779724%, 8.628845%, 13.328552%)" fill-opacity="1"><g transform="translate(200.341844, 222.116396)"><g><path d="M 10.5 -14.140625 L 15.515625 -24.03125 L 21 -24.03125 L 13.03125 -9.34375 L 13.03125 0 L 7.96875 0 L 7.96875 -9.1875 L 0 -24.03125 L 5.515625 -24.03125 Z M 10.5 -14.140625 "/></g></g></g><g fill="rgb(0.779724%, 8.628845%, 13.328552%)" fill-opacity="1"><g transform="translate(225.475654, 222.116396)"><g/></g></g><g fill="rgb(0.779724%, 8.628845%, 13.328552%)" fill-opacity="1"><g transform="translate(169.636728, 238.84663)"><g><path d="M 9.609375 0 L 7.5 0 L 6.3125 -4.59375 C 6.269531 -4.75 6.195312 -5.082031 6.09375 -5.59375 C 5.988281 -6.113281 5.925781 -6.457031 5.90625 -6.625 C 5.882812 -6.414062 5.820312 -6.070312 5.71875 -5.59375 C 5.625 -5.113281 5.554688 -4.773438 5.515625 -4.578125 L 4.328125 0 L 2.234375 0 L 0 -8.734375 L 1.828125 -8.734375 L 2.9375 -3.96875 C 3.132812 -3.082031 3.273438 -2.316406 3.359375 -1.671875 C 3.390625 -1.898438 3.445312 -2.253906 3.53125 -2.734375 C 3.613281 -3.210938 3.691406 -3.582031 3.765625 -3.84375 L 5.046875 -8.734375 L 6.796875 -8.734375 L 8.0625 -3.84375 C 8.113281 -3.625 8.179688 -3.285156 8.265625 -2.828125 C 8.359375 -2.378906 8.425781 -1.992188 8.46875 -1.671875 C 8.507812 -1.984375 8.570312 -2.367188 8.65625 -2.828125 C 8.738281 -3.296875 8.816406 -3.675781 8.890625 -3.96875 L 10 -8.734375 L 11.828125 -8.734375 Z M 9.609375 0 "/></g></g></g><g fill="rgb(0.779724%, 8.628845%, 13.328552%)" fill-opacity="1"><g transform="translate(186.615829, 238.84663)"><g><path d="M 6.125 0 L 1.09375 0 L 1.09375 -8.734375 L 6.125 -8.734375 L 6.125 -7.21875 L 2.953125 -7.21875 L 2.953125 -5.296875 L 5.90625 -5.296875 L 5.90625 -3.78125 L 2.953125 -3.78125 L 2.953125 -1.53125 L 6.125 -1.53125 Z M 6.125 0 "/></g></g></g><g fill="rgb(0.779724%, 8.628845%, 13.328552%)" fill-opacity="1"><g transform="translate(198.619761, 238.84663)"><g><path d="M 1.09375 -8.734375 L 3.8125 -8.734375 C 5.050781 -8.734375 5.953125 -8.554688 6.515625 -8.203125 C 7.078125 -7.847656 7.359375 -7.285156 7.359375 -6.515625 C 7.359375 -5.992188 7.234375 -5.566406 6.984375 -5.234375 C 6.742188 -4.898438 6.421875 -4.703125 6.015625 -4.640625 L 6.015625 -4.578125 C 6.566406 -4.453125 6.960938 -4.21875 7.203125 -3.875 C 7.453125 -3.539062 7.578125 -3.09375 7.578125 -2.53125 C 7.578125 -1.738281 7.285156 -1.117188 6.703125 -0.671875 C 6.128906 -0.222656 5.347656 0 4.359375 0 L 1.09375 0 Z M 2.953125 -5.28125 L 4.03125 -5.28125 C 4.53125 -5.28125 4.890625 -5.351562 5.109375 -5.5 C 5.335938 -5.65625 5.453125 -5.914062 5.453125 -6.28125 C 5.453125 -6.613281 5.328125 -6.851562 5.078125 -7 C 4.835938 -7.144531 4.453125 -7.21875 3.921875 -7.21875 L 2.953125 -7.21875 Z M 2.953125 -3.8125 L 2.953125 -1.53125 L 4.15625 -1.53125 C 4.664062 -1.53125 5.039062 -1.625 5.28125 -1.8125 C 5.53125 -2.007812 5.65625 -2.3125 5.65625 -2.71875 C 5.65625 -3.445312 5.132812 -3.8125 4.09375 -3.8125 Z M 2.953125 -3.8125 "/></g></g></g><g fill="rgb(0.779724%, 8.628845%, 13.328552%)" fill-opacity="1"><g transform="translate(117.249865, 255.470633)"><g><path d="M 8.34375 -4.453125 C 8.34375 -3.015625 7.929688 -1.910156 7.109375 -1.140625 C 6.296875 -0.378906 5.117188 0 3.578125 0 L 1.09375 0 L 1.09375 -8.734375 L 3.84375 -8.734375 C 5.269531 -8.734375 6.375 -8.351562 7.15625 -7.59375 C 7.945312 -6.84375 8.34375 -5.796875 8.34375 -4.453125 Z M 6.421875 -4.40625 C 6.421875 -6.28125 5.59375 -7.21875 3.9375 -7.21875 L 2.953125 -7.21875 L 2.953125 -1.53125 L 3.75 -1.53125 C 5.53125 -1.53125 6.421875 -2.488281 6.421875 -4.40625 Z M 6.421875 -4.40625 "/></g></g></g><g fill="rgb(0.779724%, 8.628845%, 13.328552%)" fill-opacity="1"><g transform="translate(131.457683, 255.470633)"><g><path d="M 6.125 0 L 1.09375 0 L 1.09375 -8.734375 L 6.125 -8.734375 L 6.125 -7.21875 L 2.953125 -7.21875 L 2.953125 -5.296875 L 5.90625 -5.296875 L 5.90625 -3.78125 L 2.953125 -3.78125 L 2.953125 -1.53125 L 6.125 -1.53125 Z M 6.125 0 "/></g></g></g><g fill="rgb(0.779724%, 8.628845%, 13.328552%)" fill-opacity="1"><g transform="translate(143.461615, 255.470633)"><g><path d="M 6.078125 -8.734375 L 7.953125 -8.734375 L 4.984375 0 L 2.96875 0 L 0 -8.734375 L 1.875 -8.734375 L 3.515625 -3.53125 C 3.609375 -3.226562 3.703125 -2.875 3.796875 -2.46875 C 3.890625 -2.0625 3.953125 -1.773438 3.984375 -1.609375 C 4.023438 -1.972656 4.171875 -2.613281 4.421875 -3.53125 Z M 6.078125 -8.734375 "/></g></g></g><g fill="rgb(0.779724%, 8.628845%, 13.328552%)" fill-opacity="1"><g transform="translate(156.564503, 255.470633)"><g><path d="M 6.125 0 L 1.09375 0 L 1.09375 -8.734375 L 6.125 -8.734375 L 6.125 -7.21875 L 2.953125 -7.21875 L 2.953125 -5.296875 L 5.90625 -5.296875 L 5.90625 -3.78125 L 2.953125 -3.78125 L 2.953125 -1.53125 L 6.125 -1.53125 Z M 6.125 0 "/></g></g></g><g fill="rgb(0.779724%, 8.628845%, 13.328552%)" fill-opacity="1"><g transform="translate(168.568436, 255.470633)"><g><path d="M 1.09375 0 L 1.09375 -8.734375 L 2.953125 -8.734375 L 2.953125 -1.53125 L 6.5 -1.53125 L 6.5 0 Z M 1.09375 0 "/></g></g></g><g fill="rgb(0.779724%, 8.628845%, 13.328552%)" fill-opacity="1"><g transform="translate(180.632095, 255.470633)"><g><path d="M 9.03125 -4.375 C 9.03125 -2.925781 8.671875 -1.8125 7.953125 -1.03125 C 7.234375 -0.257812 6.207031 0.125 4.875 0.125 C 3.53125 0.125 2.5 -0.257812 1.78125 -1.03125 C 1.0625 -1.8125 0.703125 -2.929688 0.703125 -4.390625 C 0.703125 -5.847656 1.0625 -6.957031 1.78125 -7.71875 C 2.507812 -8.488281 3.539062 -8.875 4.875 -8.875 C 6.21875 -8.875 7.242188 -8.484375 7.953125 -7.703125 C 8.671875 -6.929688 9.03125 -5.820312 9.03125 -4.375 Z M 2.65625 -4.375 C 2.65625 -3.40625 2.835938 -2.671875 3.203125 -2.171875 C 3.578125 -1.679688 4.132812 -1.4375 4.875 -1.4375 C 6.34375 -1.4375 7.078125 -2.414062 7.078125 -4.375 C 7.078125 -6.34375 6.34375 -7.328125 4.875 -7.328125 C 4.144531 -7.328125 3.59375 -7.078125 3.21875 -6.578125 C 2.84375 -6.085938 2.65625 -5.351562 2.65625 -4.375 Z M 2.65625 -4.375 "/></g></g></g><g fill="rgb(0.779724%, 8.628845%, 13.328552%)" fill-opacity="1"><g transform="translate(195.52079, 255.470633)"><g><path d="M 2.953125 -4.625 L 3.5625 -4.625 C 4.132812 -4.625 4.5625 -4.734375 4.84375 -4.953125 C 5.125 -5.179688 5.265625 -5.507812 5.265625 -5.9375 C 5.265625 -6.375 5.144531 -6.695312 4.90625 -6.90625 C 4.664062 -7.113281 4.296875 -7.21875 3.796875 -7.21875 L 2.953125 -7.21875 Z M 7.125 -6.015625 C 7.125 -5.066406 6.832031 -4.34375 6.25 -3.84375 C 5.664062 -3.351562 4.832031 -3.109375 3.75 -3.109375 L 2.953125 -3.109375 L 2.953125 0 L 1.09375 0 L 1.09375 -8.734375 L 3.890625 -8.734375 C 4.953125 -8.734375 5.753906 -8.503906 6.296875 -8.046875 C 6.847656 -7.585938 7.125 -6.910156 7.125 -6.015625 Z M 7.125 -6.015625 "/></g></g></g><g fill="rgb(0.779724%, 8.628845%, 13.328552%)" fill-opacity="1"><g transform="translate(208.354914, 255.470633)"><g><path d="M 4.796875 0 L 2.6875 -6.859375 L 2.640625 -6.859375 C 2.710938 -5.460938 2.75 -4.53125 2.75 -4.0625 L 2.75 0 L 1.09375 0 L 1.09375 -8.734375 L 3.625 -8.734375 L 5.6875 -2.0625 L 5.71875 -2.0625 L 7.921875 -8.734375 L 10.4375 -8.734375 L 10.4375 0 L 8.703125 0 L 8.703125 -4.140625 C 8.703125 -4.328125 8.707031 -4.546875 8.71875 -4.796875 C 8.726562 -5.054688 8.753906 -5.738281 8.796875 -6.84375 L 8.75 -6.84375 L 6.5 0 Z M 4.796875 0 "/></g></g></g><g fill="rgb(0.779724%, 8.628845%, 13.328552%)" fill-opacity="1"><g transform="translate(225.041352, 255.470633)"><g><path d="M 6.125 0 L 1.09375 0 L 1.09375 -8.734375 L 6.125 -8.734375 L 6.125 -7.21875 L 2.953125 -7.21875 L 2.953125 -5.296875 L 5.90625 -5.296875 L 5.90625 -3.78125 L 2.953125 -3.78125 L 2.953125 -1.53125 L 6.125 -1.53125 Z M 6.125 0 "/></g></g></g><g fill="rgb(0.779724%, 8.628845%, 13.328552%)" fill-opacity="1"><g transform="translate(237.04528, 255.470633)"><g><path d="M 8.84375 0 L 6.5 0 L 2.6875 -6.609375 L 2.640625 -6.609375 C 2.710938 -5.441406 2.75 -4.609375 2.75 -4.109375 L 2.75 0 L 1.09375 0 L 1.09375 -8.734375 L 3.4375 -8.734375 L 7.234375 -2.1875 L 7.265625 -2.1875 C 7.210938 -3.320312 7.1875 -4.125 7.1875 -4.59375 L 7.1875 -8.734375 L 8.84375 -8.734375 Z M 8.84375 0 "/></g></g></g><g fill="rgb(0.779724%, 8.628845%, 13.328552%)" fill-opacity="1"><g transform="translate(252.143009, 255.470633)"><g><path d="M 4.46875 0 L 2.609375 0 L 2.609375 -7.1875 L 0.25 -7.1875 L 0.25 -8.734375 L 6.84375 -8.734375 L 6.84375 -7.1875 L 4.46875 -7.1875 Z M 4.46875 0 "/></g></g></g></svg>